#N canvas 1282 32 1268 1342 12;
#X obj 391 953 dac~;
#X obj 676 434 vsl 15 128 1 -1 0 0 empty empty empty 0 -9 0 10 #fcfcfc
#000000 #000000 0 1;
#X obj 689 589 sig~;
#X obj 926 414 vsl 15 128 1 -1 0 0 empty empty empty 0 -9 0 10 #fcfcfc
#000000 #000000 0 1;
#X obj 905 581 sig~;
#X obj 1068 414 vsl 15 128 1 -1 0 0 empty empty empty 0 -9 0 10 #fcfcfc
#000000 #000000 0 1;
#X obj 1058 572 sig~;
#X obj 808 414 vsl 15 128 1 -1 0 0 empty empty empty 0 -9 0 10 #fcfcfc
#000000 #000000 0 1;
#X obj 776 574 sig~;
#X obj 854 116 netreceive -u -b 8000;
#X obj 885 151 oscparse;
#X obj 859 200 list trim;
#X obj 791 338 route dim1;
#X floatatom 808 389 5 -1 1 0 - - - 0;
#X floatatom 926 389 5 -1 1 0 - - - 0;
#X obj 926 338 route dim2;
#X floatatom 645 389 5 -1 1 0 - - - 0;
#X floatatom 1068 389 5 -1 1 0 - - - 0;
#X obj 628 338 route dim0;
#X obj 1055 338 route dim3;
#X obj 680 705 vsl 15 128 0.5 3 0 0 empty empty empty 0 -9 0 10 #fcfcfc
#000000 #000000 0 1;
#X obj 390 896 *~;
#X obj 265 840 nn~ freesoundloop10k-raspi.ts decode 32768;
#X connect 1 0 2 0;
#X connect 2 0 22 2;
#X connect 3 0 4 0;
#X connect 4 0 22 1;
#X connect 5 0 6 0;
#X connect 6 0 22 3;
#X connect 7 0 8 0;
#X connect 8 0 22 0;
#X connect 9 0 10 0;
#X connect 10 0 11 0;
#X connect 11 0 18 0;
#X connect 11 0 12 0;
#X connect 11 0 15 0;
#X connect 11 0 19 0;
#X connect 12 0 13 0;
#X connect 13 0 7 0;
#X connect 14 0 3 0;
#X connect 15 0 14 0;
#X connect 16 0 1 0;
#X connect 17 0 5 0;
#X connect 18 0 16 0;
#X connect 19 0 17 0;
#X connect 20 0 21 1;
#X connect 21 0 0 0;
#X connect 21 0 0 1;
#X connect 22 0 21 0;
#X coords 0 40260 20 40230 0 0 0;
